<mxfile host="Electron" agent="Mozilla/5.0 (Windows NT 10.0; Win64; x64) AppleWebKit/537.36 (KHTML, like Gecko) draw.io/24.7.17 Chrome/128.0.6613.36 Electron/32.0.1 Safari/537.36" version="24.7.17">
  <diagram id="C5RBs43oDa-KdzZeNtuy" name="Page-1">
    <mxGraphModel dx="2607" dy="1520" grid="1" gridSize="10" guides="1" tooltips="1" connect="1" arrows="1" fold="1" page="0" pageScale="1" pageWidth="827" pageHeight="1169" math="0" shadow="0">
      <root>
        <mxCell id="WIyWlLk6GJQsqaUBKTNV-0" />
        <mxCell id="WIyWlLk6GJQsqaUBKTNV-1" parent="WIyWlLk6GJQsqaUBKTNV-0" />
        <mxCell id="DiqZdJ9JSkKetgCpgGaG-11" value="" style="edgeStyle=orthogonalEdgeStyle;rounded=0;orthogonalLoop=1;jettySize=auto;html=1;" edge="1" parent="WIyWlLk6GJQsqaUBKTNV-1" source="DiqZdJ9JSkKetgCpgGaG-0" target="DiqZdJ9JSkKetgCpgGaG-10">
          <mxGeometry relative="1" as="geometry" />
        </mxCell>
        <mxCell id="DiqZdJ9JSkKetgCpgGaG-14" style="edgeStyle=orthogonalEdgeStyle;rounded=0;orthogonalLoop=1;jettySize=auto;html=1;entryX=0;entryY=0.5;entryDx=0;entryDy=0;" edge="1" parent="WIyWlLk6GJQsqaUBKTNV-1" source="DiqZdJ9JSkKetgCpgGaG-0" target="DiqZdJ9JSkKetgCpgGaG-13">
          <mxGeometry relative="1" as="geometry" />
        </mxCell>
        <mxCell id="DiqZdJ9JSkKetgCpgGaG-0" value="New" style="ellipse;whiteSpace=wrap;html=1;" vertex="1" parent="WIyWlLk6GJQsqaUBKTNV-1">
          <mxGeometry x="30" y="160" width="120" height="80" as="geometry" />
        </mxCell>
        <mxCell id="DiqZdJ9JSkKetgCpgGaG-4" style="edgeStyle=orthogonalEdgeStyle;rounded=0;orthogonalLoop=1;jettySize=auto;html=1;exitX=1;exitY=0.5;exitDx=0;exitDy=0;entryX=0.5;entryY=1;entryDx=0;entryDy=0;" edge="1" parent="WIyWlLk6GJQsqaUBKTNV-1" source="DiqZdJ9JSkKetgCpgGaG-1" target="DiqZdJ9JSkKetgCpgGaG-2">
          <mxGeometry relative="1" as="geometry" />
        </mxCell>
        <mxCell id="DiqZdJ9JSkKetgCpgGaG-1" value="Close" style="ellipse;whiteSpace=wrap;html=1;" vertex="1" parent="WIyWlLk6GJQsqaUBKTNV-1">
          <mxGeometry x="400" y="230" width="120" height="80" as="geometry" />
        </mxCell>
        <mxCell id="DiqZdJ9JSkKetgCpgGaG-5" style="edgeStyle=orthogonalEdgeStyle;rounded=0;orthogonalLoop=1;jettySize=auto;html=1;" edge="1" parent="WIyWlLk6GJQsqaUBKTNV-1" source="DiqZdJ9JSkKetgCpgGaG-2" target="DiqZdJ9JSkKetgCpgGaG-10">
          <mxGeometry relative="1" as="geometry" />
        </mxCell>
        <mxCell id="DiqZdJ9JSkKetgCpgGaG-2" value="Re-Open" style="ellipse;whiteSpace=wrap;html=1;" vertex="1" parent="WIyWlLk6GJQsqaUBKTNV-1">
          <mxGeometry x="560" y="90" width="120" height="80" as="geometry" />
        </mxCell>
        <mxCell id="DiqZdJ9JSkKetgCpgGaG-6" value="Task Status" style="text;html=1;align=center;verticalAlign=middle;whiteSpace=wrap;rounded=0;" vertex="1" parent="WIyWlLk6GJQsqaUBKTNV-1">
          <mxGeometry x="130" y="20" width="240" height="110" as="geometry" />
        </mxCell>
        <mxCell id="DiqZdJ9JSkKetgCpgGaG-12" style="edgeStyle=orthogonalEdgeStyle;rounded=0;orthogonalLoop=1;jettySize=auto;html=1;" edge="1" parent="WIyWlLk6GJQsqaUBKTNV-1" source="DiqZdJ9JSkKetgCpgGaG-10" target="DiqZdJ9JSkKetgCpgGaG-1">
          <mxGeometry relative="1" as="geometry" />
        </mxCell>
        <mxCell id="DiqZdJ9JSkKetgCpgGaG-10" value="Working" style="ellipse;whiteSpace=wrap;html=1;" vertex="1" parent="WIyWlLk6GJQsqaUBKTNV-1">
          <mxGeometry x="210" y="230" width="120" height="80" as="geometry" />
        </mxCell>
        <mxCell id="DiqZdJ9JSkKetgCpgGaG-15" style="edgeStyle=orthogonalEdgeStyle;rounded=0;orthogonalLoop=1;jettySize=auto;html=1;entryX=0.5;entryY=1;entryDx=0;entryDy=0;startArrow=block;startFill=1;" edge="1" parent="WIyWlLk6GJQsqaUBKTNV-1" source="DiqZdJ9JSkKetgCpgGaG-13" target="DiqZdJ9JSkKetgCpgGaG-10">
          <mxGeometry relative="1" as="geometry" />
        </mxCell>
        <mxCell id="DiqZdJ9JSkKetgCpgGaG-16" style="edgeStyle=orthogonalEdgeStyle;rounded=0;orthogonalLoop=1;jettySize=auto;html=1;entryX=0.5;entryY=1;entryDx=0;entryDy=0;" edge="1" parent="WIyWlLk6GJQsqaUBKTNV-1" source="DiqZdJ9JSkKetgCpgGaG-13" target="DiqZdJ9JSkKetgCpgGaG-1">
          <mxGeometry relative="1" as="geometry" />
        </mxCell>
        <mxCell id="DiqZdJ9JSkKetgCpgGaG-13" value="Hold" style="ellipse;whiteSpace=wrap;html=1;" vertex="1" parent="WIyWlLk6GJQsqaUBKTNV-1">
          <mxGeometry x="150" y="380" width="120" height="80" as="geometry" />
        </mxCell>
        <mxCell id="DiqZdJ9JSkKetgCpgGaG-21" value="" style="edgeStyle=orthogonalEdgeStyle;rounded=0;orthogonalLoop=1;jettySize=auto;html=1;" edge="1" parent="WIyWlLk6GJQsqaUBKTNV-1" source="DiqZdJ9JSkKetgCpgGaG-19" target="DiqZdJ9JSkKetgCpgGaG-20">
          <mxGeometry relative="1" as="geometry" />
        </mxCell>
        <mxCell id="DiqZdJ9JSkKetgCpgGaG-19" value="Start" style="strokeWidth=2;html=1;shape=mxgraph.flowchart.start_2;whiteSpace=wrap;" vertex="1" parent="WIyWlLk6GJQsqaUBKTNV-1">
          <mxGeometry x="65" y="620" width="100" height="100" as="geometry" />
        </mxCell>
        <mxCell id="DiqZdJ9JSkKetgCpgGaG-26" value="" style="edgeStyle=orthogonalEdgeStyle;rounded=0;orthogonalLoop=1;jettySize=auto;html=1;" edge="1" parent="WIyWlLk6GJQsqaUBKTNV-1" source="DiqZdJ9JSkKetgCpgGaG-20" target="DiqZdJ9JSkKetgCpgGaG-25">
          <mxGeometry relative="1" as="geometry" />
        </mxCell>
        <mxCell id="DiqZdJ9JSkKetgCpgGaG-20" value="Create task" style="whiteSpace=wrap;html=1;strokeWidth=2;" vertex="1" parent="WIyWlLk6GJQsqaUBKTNV-1">
          <mxGeometry x="55" y="760" width="120" height="60" as="geometry" />
        </mxCell>
        <mxCell id="DiqZdJ9JSkKetgCpgGaG-30" value="" style="edgeStyle=orthogonalEdgeStyle;rounded=0;orthogonalLoop=1;jettySize=auto;html=1;" edge="1" parent="WIyWlLk6GJQsqaUBKTNV-1" source="DiqZdJ9JSkKetgCpgGaG-25" target="DiqZdJ9JSkKetgCpgGaG-29">
          <mxGeometry relative="1" as="geometry" />
        </mxCell>
        <mxCell id="DiqZdJ9JSkKetgCpgGaG-39" value="" style="edgeStyle=orthogonalEdgeStyle;rounded=0;orthogonalLoop=1;jettySize=auto;html=1;" edge="1" parent="WIyWlLk6GJQsqaUBKTNV-1" source="DiqZdJ9JSkKetgCpgGaG-25" target="DiqZdJ9JSkKetgCpgGaG-38">
          <mxGeometry relative="1" as="geometry" />
        </mxCell>
        <mxCell id="DiqZdJ9JSkKetgCpgGaG-25" value="Has priority?" style="rhombus;whiteSpace=wrap;html=1;strokeWidth=2;" vertex="1" parent="WIyWlLk6GJQsqaUBKTNV-1">
          <mxGeometry x="50" y="880" width="130" height="120" as="geometry" />
        </mxCell>
        <mxCell id="DiqZdJ9JSkKetgCpgGaG-32" value="" style="edgeStyle=orthogonalEdgeStyle;rounded=0;orthogonalLoop=1;jettySize=auto;html=1;" edge="1" parent="WIyWlLk6GJQsqaUBKTNV-1" source="DiqZdJ9JSkKetgCpgGaG-29" target="DiqZdJ9JSkKetgCpgGaG-31">
          <mxGeometry relative="1" as="geometry" />
        </mxCell>
        <mxCell id="DiqZdJ9JSkKetgCpgGaG-36" value="" style="edgeStyle=orthogonalEdgeStyle;rounded=0;orthogonalLoop=1;jettySize=auto;html=1;" edge="1" parent="WIyWlLk6GJQsqaUBKTNV-1" source="DiqZdJ9JSkKetgCpgGaG-29" target="DiqZdJ9JSkKetgCpgGaG-35">
          <mxGeometry relative="1" as="geometry" />
        </mxCell>
        <mxCell id="DiqZdJ9JSkKetgCpgGaG-29" value="is ther a task with&amp;nbsp;&lt;div&gt;the same priority?&lt;/div&gt;" style="rhombus;whiteSpace=wrap;html=1;strokeWidth=2;" vertex="1" parent="WIyWlLk6GJQsqaUBKTNV-1">
          <mxGeometry x="260" y="880" width="130" height="120" as="geometry" />
        </mxCell>
        <mxCell id="DiqZdJ9JSkKetgCpgGaG-84" style="edgeStyle=orthogonalEdgeStyle;rounded=0;orthogonalLoop=1;jettySize=auto;html=1;entryX=0.5;entryY=0;entryDx=0;entryDy=0;" edge="1" parent="WIyWlLk6GJQsqaUBKTNV-1" source="DiqZdJ9JSkKetgCpgGaG-31" target="DiqZdJ9JSkKetgCpgGaG-29">
          <mxGeometry relative="1" as="geometry">
            <Array as="points">
              <mxPoint x="535" y="860" />
              <mxPoint x="325" y="860" />
            </Array>
          </mxGeometry>
        </mxCell>
        <mxCell id="DiqZdJ9JSkKetgCpgGaG-31" value="Notify and don&#39;t allow to create" style="whiteSpace=wrap;html=1;strokeWidth=2;" vertex="1" parent="WIyWlLk6GJQsqaUBKTNV-1">
          <mxGeometry x="475" y="910" width="120" height="60" as="geometry" />
        </mxCell>
        <mxCell id="DiqZdJ9JSkKetgCpgGaG-33" value="Yes" style="text;strokeColor=none;fillColor=none;align=left;verticalAlign=top;spacingLeft=4;spacingRight=4;overflow=hidden;rotatable=0;points=[[0,0.5],[1,0.5]];portConstraint=eastwest;whiteSpace=wrap;html=1;" vertex="1" parent="WIyWlLk6GJQsqaUBKTNV-1">
          <mxGeometry x="180" y="900" width="60" height="26" as="geometry" />
        </mxCell>
        <mxCell id="DiqZdJ9JSkKetgCpgGaG-34" value="Yes" style="text;strokeColor=none;fillColor=none;align=left;verticalAlign=top;spacingLeft=4;spacingRight=4;overflow=hidden;rotatable=0;points=[[0,0.5],[1,0.5]];portConstraint=eastwest;whiteSpace=wrap;html=1;" vertex="1" parent="WIyWlLk6GJQsqaUBKTNV-1">
          <mxGeometry x="390" y="900" width="60" height="26" as="geometry" />
        </mxCell>
        <mxCell id="DiqZdJ9JSkKetgCpgGaG-40" style="edgeStyle=orthogonalEdgeStyle;rounded=0;orthogonalLoop=1;jettySize=auto;html=1;" edge="1" parent="WIyWlLk6GJQsqaUBKTNV-1" source="DiqZdJ9JSkKetgCpgGaG-35" target="DiqZdJ9JSkKetgCpgGaG-38">
          <mxGeometry relative="1" as="geometry" />
        </mxCell>
        <mxCell id="DiqZdJ9JSkKetgCpgGaG-35" value="Add in the Priority list" style="whiteSpace=wrap;html=1;strokeWidth=2;" vertex="1" parent="WIyWlLk6GJQsqaUBKTNV-1">
          <mxGeometry x="265" y="1060" width="120" height="60" as="geometry" />
        </mxCell>
        <mxCell id="DiqZdJ9JSkKetgCpgGaG-37" value="No" style="text;strokeColor=none;fillColor=none;align=left;verticalAlign=top;spacingLeft=4;spacingRight=4;overflow=hidden;rotatable=0;points=[[0,0.5],[1,0.5]];portConstraint=eastwest;whiteSpace=wrap;html=1;" vertex="1" parent="WIyWlLk6GJQsqaUBKTNV-1">
          <mxGeometry x="330" y="1000" width="60" height="26" as="geometry" />
        </mxCell>
        <mxCell id="DiqZdJ9JSkKetgCpgGaG-55" value="" style="edgeStyle=orthogonalEdgeStyle;rounded=0;orthogonalLoop=1;jettySize=auto;html=1;" edge="1" parent="WIyWlLk6GJQsqaUBKTNV-1" source="DiqZdJ9JSkKetgCpgGaG-38" target="DiqZdJ9JSkKetgCpgGaG-54">
          <mxGeometry relative="1" as="geometry" />
        </mxCell>
        <mxCell id="DiqZdJ9JSkKetgCpgGaG-38" value="Add in the ToDo list" style="whiteSpace=wrap;html=1;strokeWidth=2;" vertex="1" parent="WIyWlLk6GJQsqaUBKTNV-1">
          <mxGeometry x="55" y="1060" width="120" height="60" as="geometry" />
        </mxCell>
        <mxCell id="DiqZdJ9JSkKetgCpgGaG-41" value="No" style="text;strokeColor=none;fillColor=none;align=left;verticalAlign=top;spacingLeft=4;spacingRight=4;overflow=hidden;rotatable=0;points=[[0,0.5],[1,0.5]];portConstraint=eastwest;whiteSpace=wrap;html=1;" vertex="1" parent="WIyWlLk6GJQsqaUBKTNV-1">
          <mxGeometry x="135" y="1000" width="60" height="26" as="geometry" />
        </mxCell>
        <mxCell id="DiqZdJ9JSkKetgCpgGaG-43" value="Task creation" style="text;html=1;align=center;verticalAlign=middle;whiteSpace=wrap;rounded=0;" vertex="1" parent="WIyWlLk6GJQsqaUBKTNV-1">
          <mxGeometry x="160" y="585" width="240" height="110" as="geometry" />
        </mxCell>
        <mxCell id="DiqZdJ9JSkKetgCpgGaG-51" value="" style="edgeStyle=orthogonalEdgeStyle;rounded=0;orthogonalLoop=1;jettySize=auto;html=1;" edge="1" parent="WIyWlLk6GJQsqaUBKTNV-1" source="DiqZdJ9JSkKetgCpgGaG-44" target="DiqZdJ9JSkKetgCpgGaG-50">
          <mxGeometry relative="1" as="geometry" />
        </mxCell>
        <mxCell id="DiqZdJ9JSkKetgCpgGaG-44" value="Start" style="strokeWidth=2;html=1;shape=mxgraph.flowchart.start_2;whiteSpace=wrap;" vertex="1" parent="WIyWlLk6GJQsqaUBKTNV-1">
          <mxGeometry x="830" y="630" width="100" height="100" as="geometry" />
        </mxCell>
        <mxCell id="DiqZdJ9JSkKetgCpgGaG-45" value="Task completation" style="text;html=1;align=center;verticalAlign=middle;whiteSpace=wrap;rounded=0;" vertex="1" parent="WIyWlLk6GJQsqaUBKTNV-1">
          <mxGeometry x="780" y="530" width="240" height="110" as="geometry" />
        </mxCell>
        <mxCell id="DiqZdJ9JSkKetgCpgGaG-53" value="" style="edgeStyle=orthogonalEdgeStyle;rounded=0;orthogonalLoop=1;jettySize=auto;html=1;" edge="1" parent="WIyWlLk6GJQsqaUBKTNV-1" source="DiqZdJ9JSkKetgCpgGaG-50" target="DiqZdJ9JSkKetgCpgGaG-52">
          <mxGeometry relative="1" as="geometry" />
        </mxCell>
        <mxCell id="DiqZdJ9JSkKetgCpgGaG-120" value="" style="edgeStyle=orthogonalEdgeStyle;rounded=0;orthogonalLoop=1;jettySize=auto;html=1;" edge="1" parent="WIyWlLk6GJQsqaUBKTNV-1" source="DiqZdJ9JSkKetgCpgGaG-50" target="DiqZdJ9JSkKetgCpgGaG-119">
          <mxGeometry relative="1" as="geometry" />
        </mxCell>
        <mxCell id="DiqZdJ9JSkKetgCpgGaG-50" value="Complete the task" style="whiteSpace=wrap;html=1;strokeWidth=2;" vertex="1" parent="WIyWlLk6GJQsqaUBKTNV-1">
          <mxGeometry x="820" y="770" width="120" height="60" as="geometry" />
        </mxCell>
        <mxCell id="DiqZdJ9JSkKetgCpgGaG-57" value="" style="edgeStyle=orthogonalEdgeStyle;rounded=0;orthogonalLoop=1;jettySize=auto;html=1;" edge="1" parent="WIyWlLk6GJQsqaUBKTNV-1" source="DiqZdJ9JSkKetgCpgGaG-52" target="DiqZdJ9JSkKetgCpgGaG-56">
          <mxGeometry relative="1" as="geometry" />
        </mxCell>
        <mxCell id="DiqZdJ9JSkKetgCpgGaG-52" value="Change the status to closed" style="whiteSpace=wrap;html=1;strokeWidth=2;" vertex="1" parent="WIyWlLk6GJQsqaUBKTNV-1">
          <mxGeometry x="820" y="880" width="120" height="60" as="geometry" />
        </mxCell>
        <mxCell id="DiqZdJ9JSkKetgCpgGaG-54" value="Add history log" style="whiteSpace=wrap;html=1;strokeWidth=2;" vertex="1" parent="WIyWlLk6GJQsqaUBKTNV-1">
          <mxGeometry x="55" y="1200" width="120" height="60" as="geometry" />
        </mxCell>
        <mxCell id="DiqZdJ9JSkKetgCpgGaG-61" value="" style="edgeStyle=orthogonalEdgeStyle;rounded=0;orthogonalLoop=1;jettySize=auto;html=1;" edge="1" parent="WIyWlLk6GJQsqaUBKTNV-1" source="DiqZdJ9JSkKetgCpgGaG-56" target="DiqZdJ9JSkKetgCpgGaG-60">
          <mxGeometry relative="1" as="geometry" />
        </mxCell>
        <mxCell id="DiqZdJ9JSkKetgCpgGaG-56" value="Ask for closing comments" style="whiteSpace=wrap;html=1;strokeWidth=2;" vertex="1" parent="WIyWlLk6GJQsqaUBKTNV-1">
          <mxGeometry x="820" y="983" width="120" height="60" as="geometry" />
        </mxCell>
        <mxCell id="DiqZdJ9JSkKetgCpgGaG-60" value="Add history log" style="whiteSpace=wrap;html=1;strokeWidth=2;" vertex="1" parent="WIyWlLk6GJQsqaUBKTNV-1">
          <mxGeometry x="820" y="1100" width="120" height="60" as="geometry" />
        </mxCell>
        <mxCell id="DiqZdJ9JSkKetgCpgGaG-62" value="" style="edgeStyle=orthogonalEdgeStyle;rounded=0;orthogonalLoop=1;jettySize=auto;html=1;" edge="1" parent="WIyWlLk6GJQsqaUBKTNV-1" source="DiqZdJ9JSkKetgCpgGaG-63" target="DiqZdJ9JSkKetgCpgGaG-65">
          <mxGeometry relative="1" as="geometry" />
        </mxCell>
        <mxCell id="DiqZdJ9JSkKetgCpgGaG-63" value="Start" style="strokeWidth=2;html=1;shape=mxgraph.flowchart.start_2;whiteSpace=wrap;" vertex="1" parent="WIyWlLk6GJQsqaUBKTNV-1">
          <mxGeometry x="1050" y="630" width="100" height="100" as="geometry" />
        </mxCell>
        <mxCell id="DiqZdJ9JSkKetgCpgGaG-64" value="" style="edgeStyle=orthogonalEdgeStyle;rounded=0;orthogonalLoop=1;jettySize=auto;html=1;" edge="1" parent="WIyWlLk6GJQsqaUBKTNV-1" source="DiqZdJ9JSkKetgCpgGaG-65" target="DiqZdJ9JSkKetgCpgGaG-67">
          <mxGeometry relative="1" as="geometry" />
        </mxCell>
        <mxCell id="DiqZdJ9JSkKetgCpgGaG-118" value="" style="edgeStyle=orthogonalEdgeStyle;rounded=0;orthogonalLoop=1;jettySize=auto;html=1;" edge="1" parent="WIyWlLk6GJQsqaUBKTNV-1" source="DiqZdJ9JSkKetgCpgGaG-65" target="DiqZdJ9JSkKetgCpgGaG-117">
          <mxGeometry relative="1" as="geometry" />
        </mxCell>
        <mxCell id="DiqZdJ9JSkKetgCpgGaG-65" value="Reopen the task" style="whiteSpace=wrap;html=1;strokeWidth=2;" vertex="1" parent="WIyWlLk6GJQsqaUBKTNV-1">
          <mxGeometry x="1040" y="770" width="120" height="60" as="geometry" />
        </mxCell>
        <mxCell id="DiqZdJ9JSkKetgCpgGaG-73" value="" style="edgeStyle=orthogonalEdgeStyle;rounded=0;orthogonalLoop=1;jettySize=auto;html=1;" edge="1" parent="WIyWlLk6GJQsqaUBKTNV-1" source="DiqZdJ9JSkKetgCpgGaG-67" target="DiqZdJ9JSkKetgCpgGaG-72">
          <mxGeometry relative="1" as="geometry" />
        </mxCell>
        <mxCell id="DiqZdJ9JSkKetgCpgGaG-67" value="Change the status to reopen" style="whiteSpace=wrap;html=1;strokeWidth=2;" vertex="1" parent="WIyWlLk6GJQsqaUBKTNV-1">
          <mxGeometry x="1040" y="880" width="120" height="60" as="geometry" />
        </mxCell>
        <mxCell id="DiqZdJ9JSkKetgCpgGaG-70" value="Add history log" style="whiteSpace=wrap;html=1;strokeWidth=2;" vertex="1" parent="WIyWlLk6GJQsqaUBKTNV-1">
          <mxGeometry x="1040" y="1290" width="120" height="60" as="geometry" />
        </mxCell>
        <mxCell id="DiqZdJ9JSkKetgCpgGaG-71" value="Task reopen" style="text;html=1;align=center;verticalAlign=middle;whiteSpace=wrap;rounded=0;" vertex="1" parent="WIyWlLk6GJQsqaUBKTNV-1">
          <mxGeometry x="980" y="530" width="240" height="110" as="geometry" />
        </mxCell>
        <mxCell id="DiqZdJ9JSkKetgCpgGaG-79" style="edgeStyle=orthogonalEdgeStyle;rounded=0;orthogonalLoop=1;jettySize=auto;html=1;entryX=0;entryY=0.5;entryDx=0;entryDy=0;" edge="1" parent="WIyWlLk6GJQsqaUBKTNV-1" source="DiqZdJ9JSkKetgCpgGaG-72" target="DiqZdJ9JSkKetgCpgGaG-76">
          <mxGeometry relative="1" as="geometry" />
        </mxCell>
        <mxCell id="DiqZdJ9JSkKetgCpgGaG-86" style="edgeStyle=orthogonalEdgeStyle;rounded=0;orthogonalLoop=1;jettySize=auto;html=1;entryX=0.5;entryY=0;entryDx=0;entryDy=0;" edge="1" parent="WIyWlLk6GJQsqaUBKTNV-1" source="DiqZdJ9JSkKetgCpgGaG-72" target="DiqZdJ9JSkKetgCpgGaG-85">
          <mxGeometry relative="1" as="geometry" />
        </mxCell>
        <mxCell id="DiqZdJ9JSkKetgCpgGaG-72" value="The priority change?" style="rhombus;whiteSpace=wrap;html=1;strokeWidth=2;" vertex="1" parent="WIyWlLk6GJQsqaUBKTNV-1">
          <mxGeometry x="1035" y="983" width="130" height="130" as="geometry" />
        </mxCell>
        <mxCell id="DiqZdJ9JSkKetgCpgGaG-80" style="edgeStyle=orthogonalEdgeStyle;rounded=0;orthogonalLoop=1;jettySize=auto;html=1;entryX=0;entryY=0.5;entryDx=0;entryDy=0;" edge="1" parent="WIyWlLk6GJQsqaUBKTNV-1" source="DiqZdJ9JSkKetgCpgGaG-76" target="DiqZdJ9JSkKetgCpgGaG-77">
          <mxGeometry relative="1" as="geometry" />
        </mxCell>
        <mxCell id="DiqZdJ9JSkKetgCpgGaG-81" style="edgeStyle=orthogonalEdgeStyle;rounded=0;orthogonalLoop=1;jettySize=auto;html=1;exitX=0.5;exitY=1;exitDx=0;exitDy=0;entryX=0.5;entryY=0;entryDx=0;entryDy=0;" edge="1" parent="WIyWlLk6GJQsqaUBKTNV-1" source="DiqZdJ9JSkKetgCpgGaG-76" target="DiqZdJ9JSkKetgCpgGaG-78">
          <mxGeometry relative="1" as="geometry" />
        </mxCell>
        <mxCell id="DiqZdJ9JSkKetgCpgGaG-76" value="is ther a task with&amp;nbsp;&lt;div&gt;the same priority?&lt;/div&gt;" style="rhombus;whiteSpace=wrap;html=1;strokeWidth=2;" vertex="1" parent="WIyWlLk6GJQsqaUBKTNV-1">
          <mxGeometry x="1260" y="988" width="130" height="120" as="geometry" />
        </mxCell>
        <mxCell id="DiqZdJ9JSkKetgCpgGaG-83" style="edgeStyle=orthogonalEdgeStyle;rounded=0;orthogonalLoop=1;jettySize=auto;html=1;exitX=0.5;exitY=0;exitDx=0;exitDy=0;entryX=0.5;entryY=0;entryDx=0;entryDy=0;" edge="1" parent="WIyWlLk6GJQsqaUBKTNV-1" source="DiqZdJ9JSkKetgCpgGaG-77" target="DiqZdJ9JSkKetgCpgGaG-76">
          <mxGeometry relative="1" as="geometry">
            <Array as="points">
              <mxPoint x="1555" y="940" />
              <mxPoint x="1325" y="940" />
            </Array>
          </mxGeometry>
        </mxCell>
        <mxCell id="DiqZdJ9JSkKetgCpgGaG-77" value="Notify and don&#39;t allow to create" style="whiteSpace=wrap;html=1;strokeWidth=2;" vertex="1" parent="WIyWlLk6GJQsqaUBKTNV-1">
          <mxGeometry x="1495" y="1018" width="120" height="60" as="geometry" />
        </mxCell>
        <mxCell id="DiqZdJ9JSkKetgCpgGaG-78" value="Add in the Priority list" style="whiteSpace=wrap;html=1;strokeWidth=2;" vertex="1" parent="WIyWlLk6GJQsqaUBKTNV-1">
          <mxGeometry x="1265" y="1160" width="120" height="60" as="geometry" />
        </mxCell>
        <mxCell id="DiqZdJ9JSkKetgCpgGaG-88" style="edgeStyle=orthogonalEdgeStyle;rounded=0;orthogonalLoop=1;jettySize=auto;html=1;" edge="1" parent="WIyWlLk6GJQsqaUBKTNV-1" source="DiqZdJ9JSkKetgCpgGaG-85" target="DiqZdJ9JSkKetgCpgGaG-70">
          <mxGeometry relative="1" as="geometry" />
        </mxCell>
        <mxCell id="DiqZdJ9JSkKetgCpgGaG-85" value="Add in the ToDo list" style="whiteSpace=wrap;html=1;strokeWidth=2;" vertex="1" parent="WIyWlLk6GJQsqaUBKTNV-1">
          <mxGeometry x="1040" y="1160" width="120" height="60" as="geometry" />
        </mxCell>
        <mxCell id="DiqZdJ9JSkKetgCpgGaG-87" style="edgeStyle=orthogonalEdgeStyle;rounded=0;orthogonalLoop=1;jettySize=auto;html=1;entryX=1;entryY=0.5;entryDx=0;entryDy=0;entryPerimeter=0;" edge="1" parent="WIyWlLk6GJQsqaUBKTNV-1" source="DiqZdJ9JSkKetgCpgGaG-78" target="DiqZdJ9JSkKetgCpgGaG-85">
          <mxGeometry relative="1" as="geometry" />
        </mxCell>
        <mxCell id="DiqZdJ9JSkKetgCpgGaG-89" value="Yes" style="text;strokeColor=none;fillColor=none;align=left;verticalAlign=top;spacingLeft=4;spacingRight=4;overflow=hidden;rotatable=0;points=[[0,0.5],[1,0.5]];portConstraint=eastwest;whiteSpace=wrap;html=1;" vertex="1" parent="WIyWlLk6GJQsqaUBKTNV-1">
          <mxGeometry x="1165" y="1010" width="60" height="26" as="geometry" />
        </mxCell>
        <mxCell id="DiqZdJ9JSkKetgCpgGaG-90" value="Yes" style="text;strokeColor=none;fillColor=none;align=left;verticalAlign=top;spacingLeft=4;spacingRight=4;overflow=hidden;rotatable=0;points=[[0,0.5],[1,0.5]];portConstraint=eastwest;whiteSpace=wrap;html=1;" vertex="1" parent="WIyWlLk6GJQsqaUBKTNV-1">
          <mxGeometry x="1390" y="1017" width="60" height="26" as="geometry" />
        </mxCell>
        <mxCell id="DiqZdJ9JSkKetgCpgGaG-91" value="No" style="text;strokeColor=none;fillColor=none;align=left;verticalAlign=top;spacingLeft=4;spacingRight=4;overflow=hidden;rotatable=0;points=[[0,0.5],[1,0.5]];portConstraint=eastwest;whiteSpace=wrap;html=1;" vertex="1" parent="WIyWlLk6GJQsqaUBKTNV-1">
          <mxGeometry x="1330" y="1108" width="60" height="26" as="geometry" />
        </mxCell>
        <mxCell id="DiqZdJ9JSkKetgCpgGaG-92" value="No" style="text;strokeColor=none;fillColor=none;align=left;verticalAlign=top;spacingLeft=4;spacingRight=4;overflow=hidden;rotatable=0;points=[[0,0.5],[1,0.5]];portConstraint=eastwest;whiteSpace=wrap;html=1;" vertex="1" parent="WIyWlLk6GJQsqaUBKTNV-1">
          <mxGeometry x="1105" y="1108" width="60" height="26" as="geometry" />
        </mxCell>
        <mxCell id="DiqZdJ9JSkKetgCpgGaG-103" style="edgeStyle=orthogonalEdgeStyle;rounded=0;orthogonalLoop=1;jettySize=auto;html=1;" edge="1" parent="WIyWlLk6GJQsqaUBKTNV-1" source="DiqZdJ9JSkKetgCpgGaG-94" target="DiqZdJ9JSkKetgCpgGaG-99">
          <mxGeometry relative="1" as="geometry" />
        </mxCell>
        <mxCell id="DiqZdJ9JSkKetgCpgGaG-94" value="Start" style="strokeWidth=2;html=1;shape=mxgraph.flowchart.start_2;whiteSpace=wrap;" vertex="1" parent="WIyWlLk6GJQsqaUBKTNV-1">
          <mxGeometry x="1690" y="660" width="100" height="100" as="geometry" />
        </mxCell>
        <mxCell id="DiqZdJ9JSkKetgCpgGaG-95" value="Task Hold" style="text;html=1;align=center;verticalAlign=middle;whiteSpace=wrap;rounded=0;" vertex="1" parent="WIyWlLk6GJQsqaUBKTNV-1">
          <mxGeometry x="1615" y="560" width="240" height="110" as="geometry" />
        </mxCell>
        <mxCell id="DiqZdJ9JSkKetgCpgGaG-98" value="" style="edgeStyle=orthogonalEdgeStyle;rounded=0;orthogonalLoop=1;jettySize=auto;html=1;" edge="1" parent="WIyWlLk6GJQsqaUBKTNV-1" source="DiqZdJ9JSkKetgCpgGaG-99" target="DiqZdJ9JSkKetgCpgGaG-101">
          <mxGeometry relative="1" as="geometry" />
        </mxCell>
        <mxCell id="DiqZdJ9JSkKetgCpgGaG-114" value="" style="edgeStyle=orthogonalEdgeStyle;rounded=0;orthogonalLoop=1;jettySize=auto;html=1;" edge="1" parent="WIyWlLk6GJQsqaUBKTNV-1" source="DiqZdJ9JSkKetgCpgGaG-99" target="DiqZdJ9JSkKetgCpgGaG-113">
          <mxGeometry relative="1" as="geometry" />
        </mxCell>
        <mxCell id="DiqZdJ9JSkKetgCpgGaG-99" value="Change the status to Hold" style="whiteSpace=wrap;html=1;strokeWidth=2;" vertex="1" parent="WIyWlLk6GJQsqaUBKTNV-1">
          <mxGeometry x="1680" y="810" width="120" height="60" as="geometry" />
        </mxCell>
        <mxCell id="DiqZdJ9JSkKetgCpgGaG-100" value="" style="edgeStyle=orthogonalEdgeStyle;rounded=0;orthogonalLoop=1;jettySize=auto;html=1;" edge="1" parent="WIyWlLk6GJQsqaUBKTNV-1" source="DiqZdJ9JSkKetgCpgGaG-101" target="DiqZdJ9JSkKetgCpgGaG-102">
          <mxGeometry relative="1" as="geometry" />
        </mxCell>
        <mxCell id="DiqZdJ9JSkKetgCpgGaG-101" value="Ask for Hold comments" style="whiteSpace=wrap;html=1;strokeWidth=2;" vertex="1" parent="WIyWlLk6GJQsqaUBKTNV-1">
          <mxGeometry x="1680" y="913" width="120" height="60" as="geometry" />
        </mxCell>
        <mxCell id="DiqZdJ9JSkKetgCpgGaG-102" value="Add history log" style="whiteSpace=wrap;html=1;strokeWidth=2;" vertex="1" parent="WIyWlLk6GJQsqaUBKTNV-1">
          <mxGeometry x="1680" y="1030" width="120" height="60" as="geometry" />
        </mxCell>
        <mxCell id="DiqZdJ9JSkKetgCpgGaG-104" style="edgeStyle=orthogonalEdgeStyle;rounded=0;orthogonalLoop=1;jettySize=auto;html=1;" edge="1" parent="WIyWlLk6GJQsqaUBKTNV-1" source="DiqZdJ9JSkKetgCpgGaG-105" target="DiqZdJ9JSkKetgCpgGaG-108">
          <mxGeometry relative="1" as="geometry" />
        </mxCell>
        <mxCell id="DiqZdJ9JSkKetgCpgGaG-105" value="Start" style="strokeWidth=2;html=1;shape=mxgraph.flowchart.start_2;whiteSpace=wrap;" vertex="1" parent="WIyWlLk6GJQsqaUBKTNV-1">
          <mxGeometry x="1955" y="660" width="100" height="100" as="geometry" />
        </mxCell>
        <mxCell id="DiqZdJ9JSkKetgCpgGaG-106" value="Task Working" style="text;html=1;align=center;verticalAlign=middle;whiteSpace=wrap;rounded=0;" vertex="1" parent="WIyWlLk6GJQsqaUBKTNV-1">
          <mxGeometry x="1880" y="560" width="240" height="110" as="geometry" />
        </mxCell>
        <mxCell id="DiqZdJ9JSkKetgCpgGaG-112" style="edgeStyle=orthogonalEdgeStyle;rounded=0;orthogonalLoop=1;jettySize=auto;html=1;entryX=0.5;entryY=0;entryDx=0;entryDy=0;" edge="1" parent="WIyWlLk6GJQsqaUBKTNV-1" source="DiqZdJ9JSkKetgCpgGaG-108" target="DiqZdJ9JSkKetgCpgGaG-111">
          <mxGeometry relative="1" as="geometry" />
        </mxCell>
        <mxCell id="DiqZdJ9JSkKetgCpgGaG-116" value="" style="edgeStyle=orthogonalEdgeStyle;rounded=0;orthogonalLoop=1;jettySize=auto;html=1;" edge="1" parent="WIyWlLk6GJQsqaUBKTNV-1" source="DiqZdJ9JSkKetgCpgGaG-108" target="DiqZdJ9JSkKetgCpgGaG-115">
          <mxGeometry relative="1" as="geometry" />
        </mxCell>
        <mxCell id="DiqZdJ9JSkKetgCpgGaG-108" value="Change the status to Working" style="whiteSpace=wrap;html=1;strokeWidth=2;" vertex="1" parent="WIyWlLk6GJQsqaUBKTNV-1">
          <mxGeometry x="1945" y="810" width="120" height="60" as="geometry" />
        </mxCell>
        <mxCell id="DiqZdJ9JSkKetgCpgGaG-111" value="Add history log" style="whiteSpace=wrap;html=1;strokeWidth=2;" vertex="1" parent="WIyWlLk6GJQsqaUBKTNV-1">
          <mxGeometry x="1945" y="928" width="120" height="60" as="geometry" />
        </mxCell>
        <mxCell id="DiqZdJ9JSkKetgCpgGaG-113" value="Icon color gray in ToDo list" style="whiteSpace=wrap;html=1;strokeWidth=2;" vertex="1" parent="WIyWlLk6GJQsqaUBKTNV-1">
          <mxGeometry x="1480" y="810" width="120" height="60" as="geometry" />
        </mxCell>
        <mxCell id="DiqZdJ9JSkKetgCpgGaG-115" value="Icon color green in ToDo List" style="whiteSpace=wrap;html=1;strokeWidth=2;" vertex="1" parent="WIyWlLk6GJQsqaUBKTNV-1">
          <mxGeometry x="2145" y="810" width="120" height="60" as="geometry" />
        </mxCell>
        <mxCell id="DiqZdJ9JSkKetgCpgGaG-117" value="Icon color red in ToDo List" style="whiteSpace=wrap;html=1;strokeWidth=2;" vertex="1" parent="WIyWlLk6GJQsqaUBKTNV-1">
          <mxGeometry x="1240" y="770" width="120" height="60" as="geometry" />
        </mxCell>
        <mxCell id="DiqZdJ9JSkKetgCpgGaG-119" value="Not appear in ToDo List" style="whiteSpace=wrap;html=1;strokeWidth=2;" vertex="1" parent="WIyWlLk6GJQsqaUBKTNV-1">
          <mxGeometry x="620" y="770" width="120" height="60" as="geometry" />
        </mxCell>
      </root>
    </mxGraphModel>
  </diagram>
</mxfile>
